<svg xmlns="http://www.w3.org/2000/svg" class="icon" viewBox="0 0 1024 1024" width="64" height="64" t="1582380126045" p-id="23696" version="1.1"><path fill="#707070" d="M 407.488 448 l -40.32 -69.824 a 48 48 0 1 1 83.136 -48 l 62.4 108.16 l 62.464 -108.16 a 48 48 0 0 1 83.136 48 L 617.984 448 h 38.016 a 48 48 0 1 1 0 96 h -96 V 576 h 160 a 48 48 0 1 1 0 96 h -160 V 768 a 48 48 0 1 1 -96 0 v -96 h -160 a 48 48 0 1 1 0 -96 h 160 v -32 h -96 a 48 48 0 0 1 0 -96 h 39.488 Z M 512 48 a 464 464 0 0 1 0 928 H 48 V 512 A 464 464 0 0 1 512 48 Z m -368 832 H 512 A 368 368 0 1 0 144 512 v 368 Z" p-id="23697" /></svg>