<svg xmlns="http://www.w3.org/2000/svg" class="icon" viewBox="0 0 1024 1024" width="48" height="48" t="1582380691348" p-id="25948" version="1.1"><path fill="#3a37e5" d="M 612.352 907.776 H 410.112 c -10.752 0 -20.48 8.704 -20.48 20.48 c 0 11.264 8.704 20.48 20.48 20.48 h 202.24 c 10.752 0 20.48 -8.704 20.48 -20.48 c -0.512 -11.776 -9.216 -20.48 -20.48 -20.48 Z m -30.72 60.416 H 440.32 c -10.752 0 -20.48 8.704 -20.48 20.48 c 0 11.264 8.704 20.48 20.48 20.48 h 141.824 c 10.752 0 20.48 -8.704 20.48 -20.48 c -0.512 -11.776 -9.728 -20.48 -20.992 -20.48 Z M 146.944 452.096 H 66.048 c -10.752 0 -20.48 8.704 -20.48 20.48 c 0 11.264 8.704 20.48 20.48 20.48 h 80.896 c 10.752 0 20.48 -8.704 20.48 -20.48 c -0.512 -11.264 -9.216 -20.48 -20.48 -20.48 Z m 808.96 0 h -80.896 c -10.752 0 -20.48 8.704 -20.48 20.48 c 0 11.264 8.704 20.48 20.48 20.48 h 80.896 c 10.752 0 20.48 -8.704 20.48 -20.48 c 0 -11.264 -9.216 -20.48 -20.48 -20.48 Z M 221.696 731.648 l -39.424 39.424 c -7.68 7.68 -7.68 21.504 0 29.184 s 21.504 7.68 29.184 0 l 39.424 -39.424 c 7.68 -7.68 7.68 -21.504 0 -29.184 c -7.168 -8.192 -19.968 -8.192 -29.184 0 Z M 809.472 144.896 l -39.424 39.424 c -7.68 7.68 -7.68 21.504 0 29.184 s 21.504 7.68 29.184 0 l 39.424 -39.424 c 7.68 -7.68 7.68 -21.504 0 -29.184 c -8.192 -7.68 -21.504 -7.68 -29.184 0 Z M 222.72 214.016 c 7.68 7.68 21.504 7.68 29.184 0 s 7.68 -21.504 0 -29.184 l -39.424 -39.424 c -7.68 -7.68 -21.504 -7.68 -29.184 0 s -7.68 21.504 0 29.184 l 39.424 39.424 Z m 576.512 517.632 c -7.68 -7.68 -21.504 -7.68 -29.184 0 s -7.68 21.504 0 29.184 l 39.424 39.424 c 7.68 7.68 21.504 7.68 29.184 0 s 7.68 -21.504 0 -29.184 l -39.424 -39.424 Z M 510.976 139.264 c 10.752 0 20.48 -8.704 20.48 -20.48 V 37.888 c 0 -10.752 -8.704 -20.48 -20.48 -20.48 c -11.264 0 -20.48 8.704 -20.48 20.48 v 80.896 c 0 10.752 9.728 20.48 20.48 20.48 Z m 0 39.936 C 343.04 179.2 207.872 314.368 207.872 482.816 c 0 108.032 56.32 203.264 141.824 256.512 v 107.008 c 0 22.528 18.432 40.448 40.448 40.448 h 242.688 c 22.528 0 40.448 -18.432 40.448 -40.448 v -106.496 c 84.992 -53.76 141.824 -148.48 141.824 -256.512 C 814.08 314.88 678.912 179.2 510.976 179.2 Z m 140.8 526.336 c -11.776 7.168 -19.456 20.48 -19.456 34.304 v 107.008 h -100.864 v -175.104 l 96.256 -95.232 c 7.168 -7.168 7.168 -19.456 0 -27.136 c -7.168 -7.168 -20.48 -7.168 -27.136 0 l -89.088 88.064 l -89.088 -88.064 c -7.168 -7.168 -20.48 -7.168 -27.136 0 c -7.168 7.168 -7.168 19.456 0 27.136 L 491.52 671.744 v 175.104 H 389.632 v -107.008 c 0 -14.336 -7.168 -26.112 -19.456 -34.304 c -76.8 -48.64 -122.368 -131.072 -122.368 -222.72 C 247.808 338.432 366.08 220.16 510.976 220.16 c 144.896 0 263.168 118.272 263.168 263.168 c 0 90.624 -45.568 173.568 -122.368 222.208 Z" p-id="25949" /><path fill="#3a37e5" d="M 774.144 482.816 c 0 -144.896 -118.272 -263.168 -263.168 -263.168 c -144.896 0 -263.168 118.272 -263.168 263.168 c 0 91.136 45.568 174.08 122.368 222.72 c 11.776 7.68 19.456 20.48 19.456 34.304 v 107.008 h 100.864 v -175.104 L 394.24 576.512 c -7.168 -7.68 -7.168 -20.48 0 -27.136 c 7.168 -7.168 20.48 -7.168 27.136 0 l 89.088 88.064 l 89.088 -88.064 c 7.168 -7.168 20.48 -7.168 27.136 0 c 7.168 7.68 7.168 20.48 0 27.136 l -96.256 95.232 v 175.104 h 100.864 v -107.008 c 0 -14.336 7.168 -27.136 19.456 -34.304 c 77.824 -48.64 123.392 -131.584 123.392 -222.72 Z M 426.496 324.608 C 379.904 355.84 346.112 402.944 330.24 455.68 a 24.576 24.576 0 0 1 -23.552 17.92 c -2.56 0 -4.608 -0.512 -7.168 -1.024 c -13.312 -4.096 -20.992 -17.408 -16.896 -30.72 c 18.944 -64.512 59.904 -120.832 115.712 -158.72 c 11.264 -7.68 26.624 -4.608 34.304 6.656 c 8.192 11.776 5.12 27.136 -6.144 34.816 Z" p-id="25950" /></svg>