<svg xmlns="http://www.w3.org/2000/svg" class="icon" viewBox="0 0 1024 1024" width="48" height="48" t="1582379261557" p-id="18518" version="1.1"><path fill="#707070" d="M 511.982 0 c -282.76 0 -511.982 229.222 -511.982 511.982 s 229.222 511.982 511.982 511.982 A 511.982 511.982 0 0 0 1023.96 512.018 C 1023.96 229.259 794.741 0 511.982 0 Z m 186.946 645.902 a 40.8855 40.8855 0 0 1 -38.0326 19.4553 H 557.95 v 98.3004 a 41.3245 41.3245 0 1 1 -82.648 0 v -98.3004 h -97.6785 a 40.9955 40.9955 0 0 1 -38.0336 -62.1688 c 8.00971 -13.0925 22.6742 -20.6263 38.0336 -19.4923 h 97.6785 v -57.4149 h -97.6785 a 40.9955 40.9955 0 0 1 -37.8866 -62.1698 a 40.8855 40.8855 0 0 1 37.8866 -19.5283 h 62.5707 l -90.6567 -115.196 a 40.5195 40.5195 0 0 1 7.23974 -57.3779 a 41.5075 41.5075 0 0 1 58.0009 7.13074 l 101.921 129.239 l 101.956 -129.239 a 41.5805 41.5805 0 0 1 58.0009 -7.13074 a 40.5195 40.5195 0 0 1 7.20474 57.3419 l -90.7667 115.196 h 67.7635 a 40.9585 40.9585 0 1 1 0 81.697 l 0.109996 0.109996 H 558.06 v 57.3419 h 102.871 a 41.0255 41.0255 0 0 1 38.0336 19.4923 c 7.97171 13.0555 7.97171 29.5849 -0.036998 42.7135 Z" p-id="18519" /></svg>