<svg xmlns="http://www.w3.org/2000/svg" class="icon" viewBox="0 0 1024 1024" width="64" height="64" t="1582435101588" p-id="65589" version="1.1"><path fill="#ffffff" d="M 512.249 6e-005 A 511.992 511.992 0 1 0 1024 511.993 A 511.751 511.751 0 0 0 512.25 6e-005 Z m 0 951.152 a 439.402 439.402 0 1 1 439.16 -439.16 a 439.643 439.643 0 0 1 -439.16 439.16 Z" p-id="65590" /><path fill="#ffffff" d="M 512.249 839.252 a 64.3909 64.3909 0 1 1 64.1499 -64.3909 a 64.1499 64.1499 0 0 1 -64.1499 64.3899 Z m 0 -192.69 c -17.846 0 -32.316 -28.94 -32.316 -64.3919 l -32.075 -289.397 a 64.3909 64.3909 0 0 1 128.54 0 L 544.324 582.169 c 0 35.452 -14.47 64.3909 -32.075 64.3909 Z" p-id="65591" /></svg>