<svg xmlns="http://www.w3.org/2000/svg" class="icon" viewBox="0 0 1024 1024" width="48" height="48" t="1582387936396" p-id="29564" version="1.1"><path fill="#707070" d="M 603.8 870.2 h -183.6 c -9.9 0 -18.45 8.1 -18.45 18.45 s 8.1 18.45 18.45 18.45 h 183.6 c 9.9 0 18.45 -8.1 18.45 -18.45 s -8.1 -18.45 -18.45 -18.45 Z M 576.35 925.1 h -128.7 c -9.9 0 -18.45 8.1 -18.45 18.45 s 8.1 18.45 18.45 18.45 h 128.7 c 9.9 0 18.45 -8.1 18.45 -18.45 s -8.55 -18.45 -18.45 -18.45 Z M 181.25 456.65 h -73.35 c -9.9 0 -18.45 8.1 -18.45 18.45 s 8.1 18.45 18.45 18.45 h 73.35 c 9.9 0 18.45 -8.1 18.45 -18.45 s -8.1 -18.45 -18.45 -18.45 Z M 916.1 456.65 h -73.35 c -9.9 0 -18.45 8.1 -18.45 18.45 s 8.1 18.45 18.45 18.45 h 73.35 c 9.9 0 18.45 -8.1 18.45 -18.45 s -8.55 -18.45 -18.45 -18.45 Z M 249.2 710.45 l -36 36 c -7.2 7.2 -7.2 19.35 0 26.55 s 19.35 7.2 26.55 0 l 36 -36 c 7.2 -7.2 7.2 -19.35 0 -26.55 c -6.3 -7.65 -18 -7.65 -26.55 0 Z M 782.9 177.65 l -36 36 c -7.2 7.2 -7.2 19.35 0 26.55 s 19.35 7.2 26.55 0 l 36 -36 c 7.2 -7.2 7.2 -19.35 0 -26.55 s -19.35 -7.2 -26.55 0 Z M 250.1 240.2 c 7.2 7.2 19.35 7.2 26.55 0 s 7.2 -19.35 0 -26.55 l -36 -36 c -7.2 -7.2 -19.35 -7.2 -26.55 0 s -7.2 19.35 0 26.55 c 0.45 0 36 36 36 36 Z M 773.9 710.45 c -7.2 -7.2 -19.35 -7.2 -26.55 0 s -7.2 19.35 0 26.55 l 36 36 c 7.2 7.2 19.35 7.2 26.55 0 s 7.2 -19.35 0 -26.55 l -36 -36 Z M 512 172.25 c 9.9 0 18.45 -8.1 18.45 -18.45 v -73.35 c 0 -9.9 -8.1 -18.45 -18.45 -18.45 s -18.45 8.1 -18.45 18.45 v 73.35 c 0 9.9 8.55 18.45 18.45 18.45 Z M 512 208.7 c -152.55 0 -275.4 122.85 -275.4 275.4 c 0 98.1 51.3 184.5 128.7 233.1 v 97.2 c 0 20.25 16.65 36.9 36.9 36.9 h 220.5 c 20.25 0 36.9 -16.65 36.9 -36.9 v -96.75 c 76.95 -48.6 128.7 -135 128.7 -233.1 c -0.9 -152.55 -123.75 -275.85 -276.3 -275.85 Z M 639.8 686.6 c -10.8 6.3 -17.55 18.45 -17.55 31.05 v 97.2 h -91.8 v -158.85 l 87.3 -86.4 c 6.3 -6.3 6.3 -17.55 0 -24.75 c -6.3 -6.3 -18.45 -6.3 -24.75 0 l -81 80.1 l -81 -80.1 c -6.3 -6.3 -18.45 -6.3 -24.75 0 s -6.3 17.55 0 24.75 l 87.3 86.4 v 158.85 h -91.8 v -97.2 c 0 -13.05 -6.3 -23.85 -17.55 -31.05 c -69.75 -44.1 -111.15 -119.25 -111.15 -202.05 c 0 -131.4 107.55 -238.95 238.95 -238.95 s 238.95 107.55 238.95 238.95 c 0 82.35 -41.4 157.95 -111.15 202.05 Z" p-id="29565" /><path fill="#707070" d="M 750.95 484.55 c 0 -131.4 -107.55 -238.95 -238.95 -238.95 s -238.95 107.55 -238.95 238.95 c 0 82.8 41.4 157.95 111.15 202.05 c 10.8 7.2 17.55 18.45 17.55 31.05 v 97.2 h 91.8 v -158.85 l -87.3 -86.4 c -6.3 -7.2 -6.3 -18.45 0 -24.75 s 18.45 -6.3 24.75 0 l 81 80.1 l 81 -80.1 c 6.3 -6.3 18.45 -6.3 24.75 0 c 6.3 7.2 6.3 18.45 0 24.75 l -87.3 86.4 v 158.85 h 91.8 v -97.2 c 0 -13.05 6.3 -24.75 17.55 -31.05 c 69.75 -44.1 111.15 -119.7 111.15 -202.05 Z M 435.05 340.55 c -42.3 28.35 -72.9 71.1 -87.3 119.25 c -2.7 9.9 -11.7 16.2 -21.6 16.2 c -2.25 0 -4.05 -0.45 -6.3 -0.9 c -12.15 -3.6 -18.9 -15.75 -15.3 -27.9 c 17.1 -58.5 54.45 -109.8 105.3 -144 c 10.35 -6.75 24.3 -4.05 31.05 5.85 c 7.2 10.8 4.5 24.75 -5.85 31.5 Z" p-id="29566" /></svg>