<svg xmlns="http://www.w3.org/2000/svg" class="icon" viewBox="0 0 1566 1024" width="128" height="128" t="1582436409892" p-id="67149" version="1.1"><path fill="#8a96a3" d="M 156.662 699.758 h 21.097 a 10.444 10.444 0 0 1 10.236 10.444 c 0 5.765 -4.491 10.444 -10.236 10.444 h -21.097 v 21.098 a 10.444 10.444 0 0 1 -10.444 10.235 a 10.277 10.277 0 0 1 -10.444 -10.235 v -21.098 h -21.097 a 10.444 10.444 0 0 1 -10.235 -10.444 c 0 -5.765 4.49 -10.444 10.235 -10.444 h 21.097 v -21.097 a 10.444 10.444 0 0 1 10.444 -10.235 c 5.765 0 10.444 4.49 10.444 10.235 v 21.097 Z m 1378.63 -83.553 v -21.097 a 10.277 10.277 0 0 0 -10.444 -10.235 a 10.444 10.444 0 0 0 -10.444 10.235 v 21.097 h -21.097 a 10.277 10.277 0 0 0 -10.235 10.444 c 0 5.598 4.595 10.444 10.235 10.444 h 21.097 v 21.097 c 0 5.745 4.679 10.236 10.444 10.236 a 10.444 10.444 0 0 0 10.444 -10.236 v -21.097 h 21.098 c 5.744 0 10.235 -4.679 10.235 -10.444 a 10.444 10.444 0 0 0 -10.235 -10.444 h -21.098 Z M 776.46 960.862 H 250.597 a 20.805 20.805 0 0 1 -20.826 -20.888 c 0 -11.53 9.463 -20.889 20.826 -20.889 h 94.728 a 83.01 83.01 0 0 1 -11.112 -41.672 v -605.97 a 83.49 83.49 0 0 1 83.637 -83.448 h 62.581 v -20.993 a 83.49 83.49 0 0 1 83.637 -83.449 h 501.152 a 83.449 83.449 0 0 1 83.637 83.449 v 605.97 c 0 15.185 -4.053 29.41 -11.134 41.672 h 115.554 c 11.552 0 20.91 9.274 20.91 20.888 c 0 11.53 -9.296 20.888 -20.889 20.888 h -250.66 v 20.993 c 0 15.186 -4.052 29.41 -11.133 41.672 h 11.196 c 11.489 0 20.826 9.275 20.826 20.889 c 0 11.53 -9.463 20.888 -20.826 20.888 H 892.808 a 41.658 41.658 0 0 1 -6.413 50.863 a 41.672 41.672 0 0 1 -59.072 0 l -50.863 -50.863 Z m 76.368 -41.777 h 66.424 c 22.978 0 41.61 -18.59 41.61 -41.88 V 270.461 c 0 -22.56 -18.048 -40.69 -40.314 -40.69 H 416.304 c -22.267 0 -40.315 18.214 -40.315 40.69 v 606.742 c 0 23.124 18.8 41.881 41.59 41.881 h 317.084 l -10.737 -10.757 a 41.693 41.693 0 0 1 -10.862 -40.377 l -19.719 -19.74 a 146.26 146.26 0 0 1 -190.981 -220.517 a 146.218 146.218 0 0 1 220.518 190.981 l 19.739 19.74 a 41.63 41.63 0 0 1 40.377 10.84 l 69.83 69.83 Z m 149.81 -104.441 h 62.853 a 41.797 41.797 0 0 0 41.59 -41.777 v -605.76 c 0 -23.145 -18.633 -41.777 -41.59 -41.777 H 563.775 a 41.797 41.797 0 0 0 -41.567 41.776 v 20.889 h 396.794 a 83.449 83.449 0 0 1 83.637 83.449 v 543.2 Z M 266.327 46.999 h 31.123 c 8.774 0 15.876 6.955 15.876 15.666 c 0 8.648 -7.102 15.666 -15.876 15.666 h -31.123 v 31.124 c 0 8.773 -6.956 15.875 -15.666 15.875 a 15.77 15.77 0 0 1 -15.667 -15.875 V 78.33 H 203.87 a 15.729 15.729 0 0 1 -15.875 -15.666 c 0 -8.648 7.102 -15.666 15.875 -15.666 h 31.123 V 15.875 C 234.993 7.102 241.95 0 250.66 0 c 8.647 0 15.666 7.102 15.666 15.875 V 47 Z M 20.888 939.974 c 0 -11.53 9.463 -20.889 20.826 -20.889 h 125.455 c 11.489 0 20.826 9.275 20.826 20.889 c 0 11.53 -9.463 20.888 -20.826 20.888 H 41.714 a 20.805 20.805 0 0 1 -20.826 -20.888 Z m 658.734 -135.022 A 104.442 104.442 0 1 0 531.9 657.23 a 104.442 104.442 0 0 0 147.722 147.722 Z m -220.08 -491.627 a 20.888 20.888 0 0 1 20.868 -20.889 h 229.792 a 20.888 20.888 0 1 1 0 41.777 H 480.431 a 20.826 20.826 0 0 1 -20.888 -20.888 Z m 0 104.441 c 0 -11.53 9.296 -20.888 20.743 -20.888 H 814.79 c 11.447 0 20.742 9.274 20.742 20.888 c 0 11.53 -9.295 20.888 -20.742 20.888 H 480.285 a 20.763 20.763 0 0 1 -20.742 -20.888 Z m 0 104.442 c 0 -11.53 9.317 -20.889 20.847 -20.889 h 146.302 c 11.51 0 20.846 9.275 20.846 20.889 c 0 11.53 -9.316 20.888 -20.846 20.888 H 480.389 a 20.805 20.805 0 0 1 -20.846 -20.888 Z M 62.666 396.878 a 62.665 62.665 0 1 1 0 -125.33 a 62.665 62.665 0 0 1 0 125.33 Z m 0 -31.333 a 31.332 31.332 0 1 0 0 -62.665 a 31.332 31.332 0 0 0 0 62.665 Z m 1295.07 -93.997 a 62.665 62.665 0 1 1 0 -125.33 a 62.665 62.665 0 0 1 0 125.33 Z m 0 -31.333 a 31.332 31.332 0 1 0 0 -62.664 a 31.332 31.332 0 0 0 0 62.664 Z" p-id="67150" /></svg>