<svg xmlns="http://www.w3.org/2000/svg" class="icon" viewBox="0 0 1024 1024" width="48" height="48" t="1582427718958" p-id="47182" version="1.1"><path fill="#8a8a8a" d="M 139.124 600.857 L 377.029 600.857 c -92.1856 340.464 63.5166 357.853 63.5166 357.853 c 65.993 0 52.3124 -52.1825 57.3031 -60.8816 c 0 -166.502 176.85 -296.972 176.85 -296.972 l -1e-008 -472.172 c 0 -46.6075 -63.5166 -63.3938 -88.4331 -63.3938 l -357.452 0 c -33.6412 0 -61.0361 88.2243 -61.0361 88.2243 c -88.4341 300.706 -88.4341 390.177 -88.4341 390.177 C 79.3426 605.821 139.124 600.857 139.124 600.857 L 139.124 600.857 L 139.124 600.857 Z M 139.124 600.857" p-id="47183" /><path fill="#8a8a8a" d="M 772.329 600.7 L 914.785 600.7 c 29.4201 0 29.8734 -28.8961 29.8734 -28.8961 l -29.4201 -476.203 c 0 -30.3093 -30.3615 -30.3093 -30.3615 -30.3093 L 761.58 65.2921 c -25.686 0 -25.4588 20.0496 -25.4588 20.0496 L 736.121 564.589 C 736.121 601.163 772.329 600.7 772.329 600.7 L 772.329 600.7 L 772.329 600.7 Z M 772.329 600.7" p-id="47184" /></svg>