<svg xmlns="http://www.w3.org/2000/svg" class="icon" viewBox="0 0 1024 1024" width="48" height="48" t="1582427892135" p-id="49867" version="1.1"><path fill="#ffffff" d="M 884.876 423.143 L 646.971 423.143 c 92.1856 -340.464 -63.5166 -357.853 -63.5166 -357.853 c -65.993 0 -52.3124 52.1825 -57.3031 60.8816 c 0 166.502 -176.85 296.972 -176.85 296.972 l 1e-008 472.172 c 0 46.6075 63.5166 63.3938 88.4331 63.3938 l 357.452 0 c 33.6412 0 61.0361 -88.2243 61.0361 -88.2243 c 88.4341 -300.706 88.4341 -390.177 88.4341 -390.177 C 944.657 418.179 884.876 423.143 884.876 423.143 L 884.876 423.143 L 884.876 423.143 Z M 884.876 423.143" p-id="49868" /><path fill="#ffffff" d="M 251.671 423.3 L 109.215 423.3 c -29.4201 0 -29.8734 28.8961 -29.8734 28.8961 l 29.4201 476.203 c 0 30.3093 30.3615 30.3093 30.3615 30.3093 L 262.42 958.708 c 25.686 0 25.4588 -20.0496 25.4588 -20.0496 L 287.879 459.411 C 287.879 422.837 251.671 423.3 251.671 423.3 L 251.671 423.3 L 251.671 423.3 Z M 251.671 423.3" p-id="49869" /></svg>