<svg xmlns="http://www.w3.org/2000/svg" class="icon" viewBox="0 0 1024 1024" width="16" height="16" t="1582432263982" p-id="56505" version="1.1"><path fill="#6691ff" d="M 0 0 h 1024 v 1024 H 0 Z" p-id="56506" /><path fill="#ffffff" d="M 429.568 367.027 l 145.562 -187.52 a 23.4752 23.4752 0 0 1 42.0096 14.3872 v 636.211 a 23.4752 23.4752 0 0 1 -41.984 14.3872 l -145.587 -187.52 H 238.925 A 46.9248 46.9248 0 0 1 192 610.048 v -196.096 c 0 -25.9072 20.992 -46.9248 46.9248 -46.9248 h 190.643 Z m 423.757 131.456 v 0.9216 c 0 19.456 -15.744 35.2 -35.2 35.2 H 723.2 c -19.456 0 -35.2 -15.7696 -35.2 -35.2 v -0.9216 c 0 -19.4304 15.7696 -35.2 35.2 -35.2 h 94.9248 c 19.456 0 35.2 15.7696 35.2 35.2 Z m -15.9488 220.979 l -0.384 0.6912 a 35.2 35.2 0 0 1 -48.0512 13.0304 l -0.1792 -0.1024 l -82.304 -47.8208 a 35.2 35.2 0 0 1 -12.8512 -47.9744 l 0.4096 -0.6656 a 35.2 35.2 0 0 1 48.0512 -13.0304 l 0.1536 0.1024 l 82.304 47.8208 c 16.7424 9.728 22.5024 31.1552 12.8512 47.9488 Z m 0 -438.707 a 35.2 35.2 0 0 1 -12.8512 47.9488 l -82.304 47.8464 l -0.1536 0.0768 a 35.2 35.2 0 0 1 -48.0512 -13.0048 l -0.4096 -0.6912 a 35.2 35.2 0 0 1 12.8512 -47.9488 l 82.304 -47.8208 l 0.1792 -0.1024 a 35.2 35.2 0 0 1 48.0512 13.0048 l 0.384 0.6912 Z" p-id="56507" /></svg>