<svg xmlns="http://www.w3.org/2000/svg" class="icon" viewBox="0 0 1024 1024" width="16" height="16" t="1582432534435" p-id="58993" version="1.1"><path d="M 684.032 456.841 c -35.1061 0 -63.5392 28.4501 -63.5392 63.5051 c 0 35.0891 28.4331 63.5392 63.5392 63.5392 c 35.0379 0 63.5051 -28.4501 63.5051 -63.5392 C 747.537 485.291 719.07 456.841 684.032 456.841 L 684.032 456.841 Z" p-id="58994" /><path d="M 684.032 545.587 c -13.9435 0 -25.2416 -11.2981 -25.2416 -25.2416 c 0 -13.9264 11.2981 -25.2245 25.2416 -25.2245 c 13.9093 0 25.2245 11.2811 25.2245 25.2245 C 709.257 534.289 697.958 545.587 684.032 545.587 L 684.032 545.587 Z" p-id="58995" /><path d="M 684.032 545.587" p-id="58996" /><path d="M 469.965 456.841 c -35.072 0 -63.5051 28.4501 -63.5051 63.5051 c 0 35.0891 28.4331 63.5392 63.5051 63.5392 s 63.5392 -28.4501 63.5392 -63.5392 C 533.504 485.291 505.037 456.841 469.965 456.841 L 469.965 456.841 Z" p-id="58997" /><path d="M 469.965 545.587 c -13.9264 0 -25.2416 -11.2981 -25.2416 -25.2416 c 0 -13.9264 11.2981 -25.2245 25.2416 -25.2245 s 25.2416 11.2811 25.2416 25.2245 C 495.206 534.289 483.908 545.587 469.965 545.587 L 469.965 545.587 Z" p-id="58998" /><path d="M 469.965 545.587" p-id="58999" /><path d="M 255.932 456.841 c -35.0891 0 -63.5392 28.4501 -63.5392 63.5051 c 0 35.0891 28.4501 63.5392 63.5392 63.5392 c 35.072 0 63.5051 -28.4501 63.5051 -63.5392 C 319.437 485.291 291.004 456.841 255.932 456.841 L 255.932 456.841 Z" p-id="59000" /><path d="M 255.932 545.587 c -13.9264 0 -25.2416 -11.2981 -25.2416 -25.2416 c 0 -13.9264 11.3152 -25.2245 25.2416 -25.2245 c 13.9093 0 25.2245 11.2811 25.2245 25.2245 C 281.156 534.289 269.858 545.587 255.932 545.587 L 255.932 545.587 Z" p-id="59001" /><path d="M 255.932 545.587" p-id="59002" /><path d="M 947.541 840.243 c 29.2011 -33.4507 46.2677 -75.4347 46.2677 -121.003 c 0 -60.5867 -30.3787 -114.842 -78.6773 -151.211 c 0 -0.170667 9.89867 -65.024 9.89867 -82.432 c 0 -216.559 -200.363 -392.021 -447.147 -392.021 c -247.125 0 -447.659 175.445 -447.659 392.021 c 0 84.4971 30.5664 162.833 82.432 226.833 c 6.5024 8.00427 9.23307 11.9296 12.4587 22.8693 c 6.31467 19.7973 12.4587 59.0336 -0.682667 124.399 c -2.54293 13.9947 -11.4347 34.1333 1.36533 46.2677 c 1.536 1.536 3.24267 2.73067 5.29067 3.2256 c 18.944 5.30773 50.5344 -10.5643 63.3344 -21.1627 c 31.7269 -25.7707 81.7323 -50.3296 122.692 -36.3349 c 49.8347 16.7083 104.107 25.9413 160.768 25.9413 c 47.2747 0 93.184 -6.5024 136.192 -18.432 c 40.1067 35.9936 95.8976 58.5387 157.355 58.5387 c 30.0373 0 58.7093 -5.46133 84.6507 -15.0187 c 17.0667 -6.144 28.8256 -4.43733 43.008 6.656 c 8.192 6.67307 37.376 28.0064 48.4693 18.7733 c 4.9664 -4.096 2.73067 -13.4656 1.04107 -18.2613 C 943.616 892.467 935.765 853.897 947.541 840.243 Z M 592.026 795.034 c -62.2763 18.432 -116.378 20.2923 -159.044 16.1963 c 9.71093 1.04107 19.456 1.87733 29.3547 2.4064 c -38.2293 -1.36533 -75.264 -7.33867 -109.739 -17.5787 c -7.168 -2.048 -14.1653 -4.26667 -20.992 -6.656 c -9.38667 -3.24267 -19.0976 -4.77867 -28.9963 -4.77867 c -9.728 0 -19.968 1.36533 -30.0373 3.90827 c -20.6677 6.5024 -47.1211 18.7904 -80.0427 41.1307 l 0 -0.494933 l 0.170667 0 c 10.5813 -60.6037 10.9227 -119.637 -16.384 -146.432 c -140.629 -170.172 -44.032 -315.904 -25.1051 -344.934 c 114.022 -175.957 327.356 -163.499 386.56 -157.867 c 273.937 50.7051 298.837 241.169 307.712 292.54 C 855.893 686.49 667.819 779.162 592.026 795.034 Z M 892.245 804.932 c -4.096 6.2976 -7.35573 10.9227 -5.29067 40.6016 c -3.92533 -2.03093 -28.3307 -12.1003 -37.7344 -5.632 c -67.072 28.6891 -130.56 15.0357 -153.429 -6.63893 C 836.949 780.169 891.563 645.188 895.147 641.075 C 956.928 704.393 911.206 795.887 892.245 804.932 Z" p-id="59003" /></svg>