<svg xmlns="http://www.w3.org/2000/svg" class="icon" viewBox="0 0 1024 1024" width="16" height="16" t="1582432935617" p-id="60533" version="1.1"><path fill="#f9ba1c" d="M 499.2 447.1 s -149.8 96.2 -161.8 324.2 h 459 l -10.5 -157.7 l -105.8 -108.7 l -57 -43.8 l -123.9 -14 Z" p-id="60534" /><path fill="#f9ba1c" d="M 556 301.5 m -132 0 a 132 132 0 1 0 264 0 a 132 132 0 1 0 -264 0 Z" p-id="60535" /><path fill="#333333" d="M 626.3 431.8 c 43.7 -34.1 71.9 -86.9 71.9 -146.3 c 0 -102.6 -84 -186.1 -187.3 -186.1 c -103.3 0 -187.3 83.5 -187.3 186.1 c 0 59.4 28.2 112.2 71.9 146.3 c -115.2 45.7 -196.8 157.4 -196.8 287.9 v 62 c 0 17.2 14 31 31.2 31 h 562 c 17.2 0 31.2 -13.9 31.2 -31 v -62 c 0 -130.5 -81.7 -242.2 -196.8 -287.9 Z M 375.4 285.2 c 0 -74.3 60.8 -134.6 135.5 -134.6 S 646.4 211 646.4 285.2 c 0 74.2 -60.8 134.6 -135.5 134.6 c -74.8 0.1 -135.5 -60.3 -135.5 -134.6 Z m 400.7 476.6 H 245.6 v -32.9 c 0 -145.3 119 -263.5 265.3 -263.5 c 146.2 0 265.2 118.2 265.2 263.5 v 32.9 Z M 268.9 460.6 l 6.1 -1.5 c 13.1 -4.3 22.4 -15.8 22.4 -29.2 c 0 -12.9 -8.7 -24 -21.1 -28.7 c -33.4 -15.1 -55 -48.2 -55 -84.7 c 0 -41.3 35.9 -76.2 73.5 -88.2 c 6.6 -20.2 16.5 -38.9 29.2 -55.4 c 2.2 -3.6 4.5 -7.2 7 -10.7 c -2.5 -0.1 -4.9 -0.7 -7.5 -0.7 c -86.1 0 -156.1 69.6 -156.1 155.1 c 0 39.3 15.1 76.1 40.6 104 c -81.2 41.8 -134.2 125.5 -134.2 220.1 v 48 c 0 17.2 14 31 31.2 31 h 55.9 c 0 -21.3 2.2 -34.9 6.3 -54.9 h -39.5 v -24.1 c 0 -85.7 58 -159.3 141.2 -180.1 Z m 544.5 -40 c 25.6 -28 40.6 -64.8 40.6 -104 c 0 -85.5 -70 -155.1 -156.1 -155.1 c -2.6 0 -5 0.6 -7.5 0.8 c 2.4 3.5 4.8 7.1 7 10.7 c 12.7 16.5 22.6 35.2 29.2 55.4 c 37.6 12.1 78.7 46.9 78.7 88.2 c 0 36.5 -21.6 69.6 -55 84.7 c -12.4 4.7 -21.1 15.7 -21.1 28.7 c 0 13.4 9.4 24.8 22.4 29.2 l 6.1 1.5 c 83.2 20.9 141.2 94.4 141.2 180.2 V 665 h -44.7 c 4.1 20 6.3 33.7 6.3 54.9 h 55.9 c 17.3 0 31.2 -13.9 31.2 -31 v -48 c 0 -94.8 -53 -178.5 -134.2 -220.3 Z m 0 0" p-id="60536" /></svg>